<svg height="24" viewBox="0 0 24 24" width="24" xmlns="http://www.w3.org/2000/svg"><path d="m5.2 5h13.6c.1104569 0 .2.08954305.2.2v1.6c0 .11045695-.0895431.2-.2.2h-13.6c-.11045695 0-.2-.08954305-.2-.2v-1.6c0-.11045695.08954305-.2.2-.2zm6 8h7.6c.1104569 0 .2.0895431.2.2v1.6c0 .1104569-.0895431.2-.2.2h-7.6c-.1104569 0-.2-.0895431-.2-.2v-1.6c0-.1104569.0895431-.2.2-.2zm0-4h7.6c.1104569 0 .2.08954305.2.2v1.6c0 .1104569-.0895431.2-.2.2h-7.6c-.1104569 0-.2-.0895431-.2-.2v-1.6c0-.11045695.0895431-.2.2-.2zm-6 8h13.6c.1104569 0 .2.0895431.2.2v1.6c0 .1104569-.0895431.2-.2.2h-13.6c-.11045695 0-.2-.0895431-.2-.2v-1.6c0-.1104569.08954305-.2.2-.2zm.12-2.24c-.03461923.0259644-.07672596.04-.12.04-.11045695 0-.2-.0895431-.2-.2v-5.2c0-.04327404.01403557-.08538077.04-.12.06627417-.08836556.19163444-.10627417.28-.04l3.46666667 2.6c.01516113.0113708.02862915.0248389.04.04.06627417.0883656.04836556.2137258-.04.28z" fill="#83868f" fill-rule="evenodd" transform="matrix(1 0 0 -1 0 24)"/></svg>