<svg height="28" viewBox="0 0 81 28" width="81" xmlns="http://www.w3.org/2000/svg"><path d="m78.4740467.27516901c-3.4613287-.17371831-8.4906381-.2752676-10.8366454-.2752676s-7.3721882.10154929-10.8333214.2752676c-3.1832805.15971831-4.2149136 1.13084507-4.8017087 2.64205634-.6458462 1.66304226-.6458462 5.27346479-.6458462 6.52005634 0 1.24639441 0 4.85681691.6458462 6.51985911.5867951 1.5110141 1.6184282 2.4825353 4.8017087 2.6422536 3.4611332.1735211 8.4873141.2750704 10.8333214.2750704s7.3753167-.1015493 10.8366454-.2750704c3.1832805-.1597183 4.2147181-1.1312395 4.8017088-2.6422536.6458462-1.6630422.6458462-5.2734647.6458462-6.51985911 0-1.24659155 0-4.85701408-.6458462-6.52005634-.5869907-1.51121127-1.6184283-2.48233803-4.8017088-2.64205634zm-32.6555694 10.79291549h-3.4947649v-.8323099c0-.39811263-.3216521-.72228164-.7168247-.72228164-.3953681 0-.7170202.32416901-.7170202.72228164v.8323099h-3.3909368c-.7113497 0-1.290128.5830704-1.290128 1.299831v2.8632958c0 .398507.3216521.7224788.7170202.7224788.3953682 0 .7170203-.3239718.7170203-.7224788v-3.4108733h3.2470243v4.4443099c0 .398507.3216521.7224789.7170202.7224789.3951726 0 .7168247-.3239719.7168247-.7224789v-4.4443099h3.3508525v2.6984507c0 .0526479-.0211176.0991831-.064526.142169-.2684671.2656057-1.1202097.2510141-1.2416358.2510141h-.6558183c-.1892762 0-.3435519.1553803-.3435519.3462536 0 .1910704.1542757.3464507.3435519.3464507h.7492832c.4031894 0 1.896672.0467324 2.4134662-.5030141.1505606-.1601127.2338578-.373662.2338578-.5828733v-2.1508732c0-.7167606-.5789738-1.299831-1.2907147-1.299831m1.2631445-5.44854365c.0465369-.03845071.0936604-.07887324.1419571-.12284508.3638873-.3300845.7524117-.76802816.8044236-1.48242253.0279612-.38233803-.0578779-.68461972-.2549753-.8983662-.2270141-.24628169-.5926612-.37109859-1.0863825-.37109859h-2.5888595c-.7113498 0-1.2901281.58307042-1.2901281 1.29983099v5.62957746c0 .398507.3216521.7228732.7168247.7228732.3955637 0 .7172158-.3243662.7172158-.7228732v-6.17715493h2.3573482c-.0041062.31016902-.1673764.80805634-.3631051 1.18625352-.1882985.36340845-.5312637.66864789-.630399.77335212-.093856.09898591-.1894717.19067605-.1904494.33580281-.0007821.07788733.0246372.14078873.0764535.21670423.3873513.56690141 1.3175027 1.75512676 1.3327543 2.19898591.0017598.05757747-.0195533.10549296-.0653081.14630986-.338468.30070423-1.5730646.08104226-1.7120887.0747324-.2154776-.00985916-.3437474.15538028-.3437474.34625352 0 .19047887.1368733.3068169.3329931.34546479.7524117.14788732 2.1846924.35295774 2.9261543-.23326761.2418746-.19107042.4027984-.44109859.3996699-.76388732-.0105588-1.03698592-.9287827-2.03946479-1.2803514-2.50422535m-8.5073171 2.58051549h2.9599816c.1894716 0 .3437473-.15538028.3437473-.34625352 0-.19107043-.1542757-.34645071-.3437473-.34645071h-2.6696148c.1161467-.36952112.1751977-.74791549.1751977-1.12532394v-.12107042h1.9741032c.1892761 0 .3435518-.15538029.3435518-.34645071 0-.19087324-.1542757-.34625352-.3435518-.34625352h-1.9741032v-1.18723944h2.3276272c.1892762 0 .3435519-.15538028.3435519-.34625352 0-.19107042-.1542757-.3464507-.3435519-.3464507h-2.3276272v-.7035493l-.0021508-.04456338h-.0013688c-.023855-.37622535-.3357305-.67535211-.7148693-.67535211-.3949771 0-.7162382.32377465-.7162382.72366197v.69980282h-2.1387421c-.1894717 0-.3435518.15538028-.3435518.3464507 0 .19087324.1540801.34625352.3435518.34625352h2.1387421v1.18723944h-1.7850225c-.1896672 0-.3437474.15538028-.3437474.34625352 0 .19107042.1540802.34645071.3437474.34645071h1.7850225v.12107042c0 .37740845-.0525984.75580282-.1564265 1.12532394h-2.1491054c-.1896672 0-.3437474.15538028-.3437474.34645071 0 .19087324.1540802.34625352.3437474.34625352h1.8896328c-.6184715 1.30830986-1.5063877 1.84563376-1.7420052 2.06214086-.067459.0621127-.1016773.1512394-.102655.2439155-.0007821.0928732.0340228.179831.0981577.2456901.0672634.0692113.156231.1039155.2453942.1039155.0846658 0 .1574042-.0416056.2362041-.0873521.1654211-.0962254 1.8479842-1.0675493 2.6498659-2.56830986m-5.4592674 7.23435216h-4.1832372c.0023464-.0238592.0037151-.0467324.0037151-.0692113v-12.05163382c0-.39811268-.3216521-.72208451-.7170203-.72208451-.3951726 0-.7168247.32397183-.7168247.72208451v12.05163382c0 .0224789.0011732.0453521.0037152.0692113h-2.0808643c.0025419-.0238592.0037151-.0467324.0037151-.0692113v-12.05163382c0-.39811268-.3216521-.72208451-.7170203-.72208451-.3951725 0-.7168247.32397183-.7168247.72208451v12.05163382c0 .0224789.0011732.0453521.0037152.0692113h-4.1537118c-.1894717 0-.3437473.1553802-.3437473.3464507 0 .1908732.1542756.3462535.3437473.3462535h13.2706427c.1894717 0 .3437474-.1553803.3437474-.3462535 0-.1910705-.1542757-.3464507-.3437474-.3464507m-11.9829001-6.37936625c.4743635 1.11329575.7191711 2.11459155.8140047 2.43540845.0940514.3178592.3439429.5286479.6962937.5286479.0922917 0 .185561-.0185352.2751152-.0569859.3658426-.1581409.4753412-.5223381.3722952-.9693521-.0580733-.2518029-.2309247-1.13123947-.7930826-2.42180285-.5611803-1.28859155-1.1542325-2.30467606-1.3067484-2.55845071-.2229079-.37129577-.6206224-.6532676-1.0756281-.39495774-.4534415.25752112-.3877424.68797183-.2006171 1.06380281.1286608.25870423.7438083 1.26019719 1.2183674 2.37369014m9.9534806-.53474084c-.4872687 1.07819718-1.0670247 2.00535209-1.1997917 2.21239439-.1200574.1804225-.4061225.6185634-.0625706.9890704.3480491.3756338.8368821.3048451 1.2187584-.1230423.1695273-.1896901.8116583-1.1773802 1.3681458-2.43599996.5553143-1.2564507.8507649-2.26523943.9381683-2.54030986.1153646-.36261971.1038281-.85853521-.3500045-1.03836619-.577605-.22892958-.8973018.17647887-1.0427785.55960563-.100113.2636338-.3822674 1.29805634-.8699272 2.37664789m-13.4259156-3.85836056h-5.963176c.3028809-.73352113.5015427-1.2927324.5015427-1.29352113.19436-.38766197.0633527-.85064789-.2919311-1.03126761-.3554794-.18042253-.8026638-.01202817-.9991746.38135212-.005475.01518309-.5523813 1.55005633-1.12118741 2.68780281-.56841501 1.13695775-1.26705513 2.12149296-1.42817449 2.36659155-.23072918.35098592-.12670551.8271831.23346664.99774648.40514479.19225352.79836205.01557747 1.05079541-.33501408.00684366-.00966198.73676905-.9567324 1.38750355-2.28357747.1200574-.24470422.2448076-.51287324.3709265-.79740845h.3204789c-.0056704.03687324-.0123186.0851831-.0123186.11870423v10.7914366c0 .3981127.3216521.7222817.7170203.7222817.3953681 0 .7170202-.324169.7170202-.7222817v-3.4108732h4.2540203c.1894717 0 .3437474-.1553803.3437474-.3464507 0-.1908733-.1542757-.3462535-.3437474-.3462535h-4.2540203v-3.16538033h4.0182073c.1896672 0 .3437473-.15557747.3437473-.34645071 0-.19087323-.1540801-.34625352-.3437473-.34625352h-4.0182073v-2.82977464c0-.03884507-.0035196-.07847888-.0105588-.11870423h4.5277668c.1894717 0 .3437473-.15538028.3437473-.34625352 0-.19107042-.1542756-.3464507-.3437473-.3464507m-9.49806427-2.32461127c-.35567489-.1808169-.80266379-.01222535-.99917465.38174648-.0070392.02011267-.65190769 2.04636619-1.53630435 3.63171831-.88361452 1.58357746-1.79362603 2.44960563-2.06893678 2.87887324-.25321549.39495774-.06804555.81890139.28704274.99971829.35411062.1800282.72933883-.0335211.99428632-.37070421.04966543-.06329577.6319633-.71597183 1.24417774-1.5971831v8.00346481c0 .3981127.32165212.7220845.71702025.7220845.39536812 0 .7168247-.3239718.7168247-.7220845v-10.58478875c.51327465-1.14464789.91646411-2.25360564.93816829-2.31374648.1926002-.38766197.06139743-.84887324-.29310426-1.02909859m72.56514677 13.13020562c-.2669028.2691549-.6996178.2691549-.9669116 0l-2.3829631-2.4034648c-.2672939-.2693521-.2672939-.7061127 0-.9752676.2667072-.2691549.7000088-.2691549.9667161 0l2.3831586 2.403662c.2670984.2691549.2670984.7059155 0 .9750704zm-4.0414757.8301409c0 .402845-.3425741.7250422-.7502609.686-.3554793-.0337184-.6167117-.3549296-.6167117-.7151831v-3.0598874l-2.8905673 2.9153521c-.2672938.269155-.7000088.269155-.9673027 0-.2665117-.2693521-.2665117-.7059154 0-.9750704l3.6852142-3.716507c.0516208-.0522535.1108673-.0910986.1726558-.1230423v-.3858873h-3.3295393c-.1779352 0-.3202834-.1543944-.3020988-.3377746.0158382-.1595212.1605328-.2748733.3195013-.2748733h3.3121368v-1.47847886h-2.1000265c0 .40304226-.3429653.72523944-.750652.686-.3552838-.03411267-.6163206-.35552112-.6163206-.71538028v-5.07923943c0-.62526761.5029114-1.13242254 1.1229471-1.13242254h6.0550766c.6202313 0 1.1229472.50715493 1.1229472 1.13242254v5.07864788c0 .36005634-.2610368.68166197-.6165162.71597183-.4076867.03923944-.7508475-.28295774-.7508475-.686h-2.0996355v1.47847886h3.3123324c.158773 0 .3036631.1153521.3195013.2748733.0181846.1833802-.1241636.3377746-.3022944.3377746h-3.3295393zm-8.0796273-.7321409c-.2665117-.2691549-.2665117-.7057183 0-.9750704l.6290303-.634338c0-1.0253522-.0052794-5.3367606-.0052794-5.99752117 0-.52943662.06785-.83743662-.7625795-1.31422535-.0584644-.03352113-.2076562-.1084507-.3423786-.20033803-.1638568-.11160563-.4049493-.31095774-.5678284-.5260845-.0887721-.11732395-.1507561-.24115493-.1832146-.34033803-.099722-.27842254.2103937-.35709859.3283002-.20092958.0107543.01419718.0342183.07591549.0580734.12284507.0948336.18633803.4329105.66943662 1.3939562.71123944.268467.0116338.5472974.02898591.7432216.1131831.4698663.20171831.6998134.6392676.6998134 1.16850704v5.09008451l.4368211-.440507c.2672939-.269155.7000089-.269155.9667162 0 .2672939.2691549.2156731.7577746-.0516208 1.0269295l-2.376315 2.3965634c-.2667072.2691549-.6998133.2691549-.9667161 0zm-4.0637665-4.6539155c-.8900671 0-.8233903-.7210986-2.5716526-.7210986h-7.0415416c-.3202834 0-.5778006-.27290138-.5778006-.59785913 0-.32495774.2575172-.59746479.5778006-.59746479h7.0370443c1.7506088 0 1.7201056-.72109859 2.5761499-.72109859.7262103 0 1.3149608.5903662 1.3149608 1.31856338 0 .72839433-.5887505 1.31895773-1.3149608 1.31895773zm3.1381123-8.44278871c.0086035-.05245071.0887721-.37149296.4026029-.08202817.5183585.47915493 1.1902106.52904225 1.8475932.95673239.5253977.34132394.8885029.89659155.7469368 2.04340845-.1920136-.51898591-.4379944-.91394366-.7373557-1.23752112-.2862606-.30977465-.6223822-.55467606-1.0071915-.78202817-.0418441-.02464789-.0803641.0360845-.041062.06467605.4853134.35157747.886352.72839437 1.1907972 1.14721127.3369037.46535211.5541411.98433803.6462372 1.53743662.0035196.01991549-.0148605.03647887-.0344138.03056338l-.0793865-.02504225c-.0093856-.00276057-.0160337-.01005634-.0185756-.01912676-.3151995-1.24205634-1.38985-.85025353-2.1651391-1.48478874-.7109588-.58188732-.8793128-1.39309859-.7510431-2.14949295zm9.0053402 5.6886338v-2.10828169h2.0996355v2.10828169zm-3.4669992 0v-2.10828169h2.1000266v2.10828169zm3.4669992-2.78304225v-2.10828169h2.0996355v2.10828169zm-3.4669992 0v-2.10828169h2.1000266v2.10828169zm-9.0959502 3.5234845c.2272096-.1060845 1.1800429.43538028 1.183758.70907042.0041062.27369015-.9690625.80371834-1.183758.70907044-.2144999-.0944507-.2264274-1.31205635 0-1.41814086zm-58.6055401 16.67717466v-.3127324h1.34468181v-1.0221972h.3310377v1.0221972h1.34468182v.3127324h-1.34468182v1.5646479h1.63426648v.2713239h-3.55792209v-.2713239h1.59261791v-1.5646479zm-1.46845433-1.710169v-.333831h1.46845433c.01368732-.0552113.04849223-.1386197.10363259-.2502254.06902322-.2086197.12435912-.3685352.16542109-.4797464l.37229521.062507c-.0412575.1114085-.10343706.2575211-.18595207.4381408-.04164857.1112113-.06941429.1877184-.08271055.229324h2.93729972v.333831h-3.08199428c-.1937734.4034366-.42802218.7995774-.70352845 1.1886197v2.7327606h-.3515687v-2.315324c-.1931868.2086197-.41374824.4241409-.66187987.6465634-.04145304-.1110141-.11047626-.2155211-.20687413-.3127324.70333292-.6258592 1.21308797-1.2724225 1.53043835-1.9398873zm8.98531753.4173183v-.5454085c0-.1482817.1192753-.2685633.2663162-.2685633h2.0296346c-.0553358-.2086198-.1378509-.4097465-.2479361-.6045634l.3515687-.0834085c.0963979.1948169.1859521.3961409.2690537.6045634l-.2068741.0834085h1.926002c.147041 0 .2663162.1202816.2663162.2685633v.5454085h-.3517642v-.4549014c0-.0368733-.029721-.0668451-.0664813-.0668451h-3.8175902c-.0367602 0-.0664813.0299718-.0664813.0668451v.4549014zm.6000914.3127324v-.271324h3.4748205v.271324h-1.5509693c-.1521249.1252112-.3038586.2431267-.4553969.3547324.1931868.2224225.3515687.4586479.4759278.7090704.606544-.2782254 1.1235338-.5424507 1.551556-.7924789l.1857565.291831c-.0688277.0281972-.1652255.0765071-.2895847.1461127-.0962023.0558028-.3173503.1666197-.6616843.3334366.2342488.723662.7166292 1.2243099 1.4477278 1.5019437-.0136873.0141972-.0277657.0281972-.041062.042-.041453.0414084-.0967889.1179155-.1658121.2293239-.7721606-.333831-1.2825023-.8827887-1.5304384-1.6478591l-.3722952.1879154c.0963979.2644226.1448901.5420564.1448901.8338874.0132963.6400563-.241679.9600845-.7655125.9600845h-.6618798c-.0140784-.1254085-.0414531-.2368169-.082515-.3340282h.6411533c.3580213.0276056.5302861-.1810141.5169898-.6260563 0-.1528169-.0209221-.3056338-.0621796-.4586479-.5652864.5702535-1.3444862 1.0147042-2.3374038 1.3349296-.0553359-.0972113-.1175155-.2088169-.1859521-.3336338.9925265-.2504226 1.8063357-.6885634 2.4408409-1.3140282-.0416485-.1252113-.0969844-.2431268-.1658121-.3547324-.5238335.4588451-1.2066354.8273803-2.0476237 1.1056056-.0551403-.1254084-.1173199-.2295211-.1863431-.3127324.8407927-.2362253 1.5374775-.5846479 2.0890767-1.0432957-.0273747-.0414085-.0756714-.1041127-.1446946-.1875212-.0273746-.0418028-.0484922-.0696056-.0621795-.0838028-.4411229.2644226-1.0202923.5148451-1.7373125.7512676-.0136873-.0138028-.0279613-.0418028-.0412575-.0834084-.0551404-.1114085-.1036326-.1948169-.1446946-.2506197.8544801-.1804226 1.5785395-.5006479 2.1717872-.9592958zm11.9431483-.6674254-.3306467-.1879155c.303272-.333831.5375208-.6185633.7033329-.8553802l.3306467.1879154c-.2344443.2782254-.26221.3127324-.0827106.1041127-.1794994.2086197-.3859825.4594366-.6206223.7512676zm-1.1583387-.1672112c-.0277657-.0414085-.0621796-.0972113-.1032415-.1666198-.1104763-.1806197-.2551709-.3965352-.4342793-.6467605l.3306467-.1459155c.0690232.0832113.1585774.2155211.2690536.3961408.1241636.1810141.2137178.3200282.2690537.4172395zm-1.3857438.0834084c-.1241636-.2080282-.3036631-.4588451-.5379118-.750676l.2895846-.1668169c.0962024.1114084.2410925.2920281.4346703.5420563.0827106.0834084.1376554.1461127.1654211.1879155zm-.930738 1.106v-.7329296c0-.1482817.1190797-.2685633.2663162-.2685633h4.0799957c.1468455 0 .2661207.1202816.2661207.2685633v.7329296h-.3720997v-.6217183c0-.0368732-.0299165-.0670423-.0666768-.0670423h-3.7554106c-.0367602 0-.0666768.0301691-.0666768.0670423v.6217183zm-.1863432 1.4806479v-.3334366h2.3995835v-.2920282l1.0756281-.6053521h-2.502825v-.3332394h2.8246726c.0735205 0 .1329626.0599436.1329626.1340845v.1656338c0 .0469295-.0242461.0903098-.0639393.1147605l-1.0942038.6702254v.1459155h2.1927093v.3334366h-2.1927093v.730169c.0136873.4172394-.1931868.6187606-.6208179.6051549-.1652256.0136057-.4069046.0205071-.7238639.0205071-.0136874-.1250141-.0342183-.257324-.0619841-.3959437.2068742.0134085.4274356.0207042.662271.0207042.2616234.0138029.385787-.0976056.3720997-.3338309v-.6467606zm12.5436112-.2086789c-.303272-.4450422-.5723257-.8202817-.8065745-1.1261127l.2690537-.1879154c.0273747.042.0690233.0976056.1241636.1672112.3028809.3754366.5375208.688169.7033329.9385916zm-.5580518 1.4812395c-.0142739-.1252113-.0416485-.2437183-.0827105-.3545352h.8476364c.4137483.0276056.6206224-.1599155.6206224-.5635493.0275702-.3196338.0481012-1.0287043.0621796-2.1274085.0115364-.2687606.0181845-.4690986.0201399-.6006197.000391-.0372676-.0295255-.0670423-.0666768-.0670423h-1.360129c-.1380464.333831-.282741.6189578-.4342792.8553803-.0827106-.0692113-.179695-.1250141-.2895847-.1668169.3169593-.5426479.5789738-1.1543098.7858479-1.8355775l.3517643.0623099c-.0277657.0836056-.0758669.2086197-.1448901.375831-.0551404.1804225-.103046.3127324-.1446946.3961408h1.3884812c.147041 0 .2663163.1200845.2663163.2683662v.1902817c-.0277658 1.1965071-.0553359 2.0932958-.0827106 2.691155-.0136873.5698591-.3101156.8622816-.889285.8760845zm-2.7718786.042v-3.7995212c0-.1482817.1190797-.2683662.2661207-.2683662h.2714001c.1104762-.3196338.1863431-.5980563.2277962-.8342817l.3722952.0623099c-.0277657.1114085-.0899453.3062254-.1863432.5844507-.0279612.0832113-.0484922.1461127-.061984.1875211h.7475234c.147041 0 .2663162.1200845.2663162.2683662v3.7575212h-.3312332v-.4172395h-1.2408537v.4592395zm.3310377-.7305634h1.2408537v-1.3554366h-1.2408537zm0-1.6894648h1.2408537v-1.2680845c0-.0370704-.029721-.0670423-.0664813-.0670423h-1.1078911c-.0367602 0-.0664813.0299719-.0664813.0670423zm10.4746353-.3964366c-.1931868-.1944226-.4417095-.4308451-.7449815-.7088733.0138829.0138029 0 0-.041062-.042-.2762884.2086198-.5791693.4174367-.910207.6258592-.0136873-.0274085-.0416486-.0625071-.0827106-.1045071-.0140783-.0414084-.0621795-.1039154-.1448901-.1873239.8409883-.4592394 1.5101029-1.0221972 2.0065617-1.6900563l.3720997.1047042c-.1241636.1666197-.2620145.3200282-.4137482.4586479h2.4824895v.3547324c-.6898412.7788732-1.592618 1.3974366-2.7098947 1.856676h2.7098947v2.2108169h-.3517643v-.3127324h-2.8131361v.3127324h-.3310377v-1.8980845c-.041062.0138028-.1032415.0349014-.1859521.0625071-.1519293.042-.3726863.1114084-.6620754.2088169-.0138829-.042-.0484922-.1112113-.1034371-.2088169-.0277657-.0552113-.0482967-.0970141-.061984-.1252113 1.7095468-.4172394 3.0614633-1.1263099 4.0543809-2.1274085h-2.3375994l-.2690537.2500282c.1380465.1114085.3517642.2920282.6413489.5426479.0827106.0834085.1517338.1459155.2068741.1873239zm-.6413489 2.2737183h2.8129406v-1.293324h-2.8129406zm9.6471974-3.7339183v-.3332395h3.0409323v.3332395h-1.3857437v.8344788h.8920224c.147041 0 .2663162.1204789.2663162.2687606v1.9006479c.0134918.3756338-.1521248.5633521-.4964588.5633521h-.4139437c0-.1114084-.020531-.2224225-.0619841-.3340282h.1658122c.0958112.014.1652255.0209014.2062875.0209014.2068741.0141972.303272-.0834084.2895847-.2920281v-1.7476338c0-.0368733-.0297211-.0670423-.0664813-.0670423h-.7811551v3.1914085h-.3312333v-3.1914085h-.7610152c-.0367602 0-.0664813.030169-.0664813.0670423v2.4154929h-.3101156v-2.5267042c0-.1482817.1190797-.2687606.2661206-.2687606h.8714915v-.8344788zm-1.6958594 2.8579718v-3.0452958h.3101156v3.0452958zm.2274051 1.5228451c-.0827105-.0834085-.1726558-.1668169-.2690537-.2508169.4002565-.3332395.6618799-.6806761.7860435-1.0427043.1380464-.3472394.2068741-.8758873.2068741-1.5853521v-2.1274084h.3312332v2.1069014c0 .7650704-.0694142 1.3420282-.2068741 1.7312676-.1521248.3892394-.4344748.7782817-.848223 1.1681127zm8.6545145-4.2762507v-.2920282h2.1923182v-.4592394h.3517642v.4592394h2.2132403v.2920282h-2.2132403v.5422535h1.3679503c.147041 0 .2663162.1200845.2663162.2683662v2.9021408h.7033329v.2920282h-5.0058454v-.2920282h.6828019v-2.9021408c0-.1482817.1192753-.2683662.2663162-.2683662h1.3673637v-.5422535zm12.8328829.6674056-.2068741-.2086197c.2483272-.1944225.4342793-.3545352.5584428-.4799437l.2274052.1672113c-.1241636.1248169-.3173504.2989296-.5789739.5213521zm-1.5101028 0c-.1652256-.1668169-.3378814-.3265352-.5169898-.4799437l.2068741-.1875211c.0827105.0696056.1927957.1668169.3308422.2922254.0827105.0834084.1515382.1459155.2068741.1873239zm-.6411534 3.5668451v-1.8795493c0-.1484789.1192752-.2687606.2663162-.2687606h2.3219567c.147041 0 .2663163.1202817.2663163.2687606v1.8795493h-.3105068v-.2709296h-2.2339668v.2709296zm1.5720869-.5215493h.9719955v-.5420564h-.9719955zm.9053187-1.355831h-.9053187v.5633521h.9719955v-.4963099c0-.0368732-.0299165-.0670422-.0666768-.0670422zm-2.16729 1.355831h.9518557v-.5420564h-.9518557zm0-1.2887888v.4963099h.9518557v-.5633521h-.8853744c-.0367602 0-.0664813.030169-.0664813.0670422zm-.3722952-2.5284788c0-.0970141-.020531-.1942254-.061984-.2920282 1.1030028-.0276056 2.102764-.0694084 2.9992838-.1252113l.0827105.271324c-.3586079.028-.8202618.0558028-1.3857438.0834084v.9598874h1.6131489v.2707323h-1.3440952c.3306466.333831.7923005.5913522 1.3855482.7719719-.082515.0834084-.1446945.1810141-.1861476.291831-.6755672-.263831-1.1651823-.6045634-1.4684543-1.0218029v.7506761h-.3101156v-.7506761c-.3453117.4452395-.8482231.7999719-1.5102985 1.0638029-.0827105-.1114085-.1517337-.1948169-.2066786-.2504226.6341142-.2088169 1.1168857-.4933521 1.4479234-.8553803h-1.2203227v-.2707323h1.4893764v-.9387888c-.1384375.0138028-.358999.0207042-.662271.0207042-.2895847.0138029-.5101461.0207043-.6618799.0207043zm-1.6135399 4.2974084c-.0136873-.1534084-.0342183-.2713239-.061593-.3547324.0684366.0138028.1789129.0207043.3306467.0207043.2068741.0138028.3032719-.0765071.2895846-.2711268v-1.5017465l-.6202313.2502254-.0621795-.3547324c.2755062-.0972113.5033024-.1804226.6824108-.2500282v-1.126507h-.5997003v-.3127324h.5997003v-1.0221972h.3105067v1.0221972h.4964588v.3127324h-.4964588v1.0218028c.1374599-.0552113.2821545-.1108169.4342793-.1664226 0 .0976057.0132962.2015212.0412575.3125353-.1239681.0418028-.282741.1047042-.4755368.1881126v1.6683662c.0273747.3616338-.1448901.5426479-.5173808.5426479-.1106718.0134085-.2276006.0209014-.3517642.0209014zm10.5788935-2.6074901v-1.8385352c0-.1482817.1190798-.2687606.2661207-.2687606h2.4046673c.1472365 0 .2663162.1204789.2663162.2687606v1.8385352h-1.3030332v.5840563h1.5926179v.3127324h-1.4477278c.4137482.5006479.9444253.8833803 1.5926179 1.1472113-.0827105.0834084-.1517338.1806197-.2070697.2922253-.6896456-.3340281-1.1994006-.7439718-1.5304383-1.2308169v1.5435493h-.3101157v-1.5435493c-.3863736.5288451-.9033633.959493-1.5515559 1.293324-.0551404-.1114085-.1241636-.2086197-.2068741-.291831.6481925-.2922254 1.1792607-.695662 1.5926179-1.2101127h-1.3857438v-.3127324h1.5515559v-.5840563zm-.7240594-1.2099155c-.2620145-.333831-.4896151-.6047606-.6828019-.8133803l.2690537-.1879155c.1658121.1668169.4000609.4312395.7033329.7926761zm-.3101156 3.5666479-.2274052-.229324c.1100852-.1108169.1654211-.2431267.1654211-.3961408v-1.9562535c0-.0368733-.0299166-.0668451-.0666768-.0668451h-.4919615v-.3133239h.6024378c.1470409 0 .2661206.1202816.2661206.2685633v2.0467606c.0549449-.0414085.1312028-.1110141.2276007-.2086197.1658121-.1524226.2825455-.2569296.3515687-.3127324.0136873.1252113.0416486.2366197.0827105.3340282-.0963978.0694084-.2274051.181014-.3928262.3332394-.1378509.1254084-.2414835.2088169-.3101156.2508169-.0140784.0274084-.0486878.0694084-.1036326.1250141-.041062.0554084-.0758669.0968169-.1032415.1248169zm2.668246-2.6280564h.9929176v-.6258591h-.9929176zm.9264363-1.5433521h-.9264363v.6254648h.9929176v-.5582253c0-.0372676-.0297211-.0672395-.0664813-.0672395zm-2.2294695 1.5433521h.9929175v-.6258591h-.9929175zm0-1.4761126v.5582253h.9929175v-.6254648h-.9264363c-.0367602 0-.0664812.0299719-.0664812.0672395zm-19.005827 3.874845h2.9167687v-.4795493h-2.9167687zm0-.7508732h2.9167687v-.5424507h-2.9167687zm0-.8137747h2.9167687v-.5215492h-2.9167687zm0-1.2674929v.4750141h2.9165732v-.4750141c0-.0372676-.0297211-.0672394-.0666768-.0672394h-2.7834151c-.0367603 0-.0664813.0299718-.0664813.0672394z" fill="#fff" fill-rule="evenodd" transform="translate(-3)"/></svg>