<svg height="48" viewBox="0 0 48 48" width="48" xmlns="http://www.w3.org/2000/svg" xmlns:xlink="http://www.w3.org/1999/xlink"><mask id="a" fill="#fff"><path d="m8 39.9999872v-31.9999872h31.9999616v31.9999872z" fill="none"/></mask><g fill="none" fill-rule="evenodd"><path d="m13.6666496 7.9999872h20.666624c3.129728 0 5.666688 2.537088 5.666688 5.666688v20.666624c0 3.129728-2.53696 5.666688-5.666688 5.666688h-20.666624c-3.1296 0-5.666688-2.53696-5.666688-5.666688v-20.666624c0-3.1296 2.537088-5.666688 5.666688-5.666688" fill="#fff" mask="url(#a)"/><g fill="#42c57a"><path d="m19.7327744 18.9838336c-.837888-.540544-1.694592-.603904-2.355584-1.209344-.39936-.365824-.50176.037376-.513152.103808-.163328.956032.051712 1.98144.957696 2.7168.988288.802048 2.357632.306944 2.760192 1.876608.002944.01152.011648.020736.022912.02432l.101888.031488c.02432.007424.047872-.01344.043648-.038656-.117248-.699008-.394112-1.355136-.824064-1.943168-.387584-.529152-.899328-1.00544-1.517568-1.450112-.050048-.035968-.000768-.112896.052352-.081664.490496.28736.9184.596992 1.28384.988416.381824.409216.695296.908288.939776 1.56416.18048-1.449472-.282112-2.151296-.951936-2.582656z" mask="url(#a)"/><path d="m22.2816512 29.812608c.340352.340224.340352.892032 0 1.232256l-2.806912 2.806912c-.340224.340352-.891904.340352-1.232256 0-.340224-.340352-.340224-.892032 0-1.232256l.58048-.58048c-.00384-.033792-.006528-.068096-.006528-.102784v-6.228608-.701952c-.022784-.346112-.182528-1.10528-1.091456-1.661056-.07296-.044672-.264704-.137088-.436224-.253056-.208896-.141056-.516608-.393216-.723968-.66496-.113152-.148352-.192512-.304896-.233344-.430336-.12736-.351872.267904-.451328.418048-.253696.013696.01792.044032.095744.074368.155136.120448.235264.555648.83072 1.896192.898816.01344.000768.443904-.039168.852224.132992.57984.244608.98688.818176.98688 1.487232v.32256.193792 5.369728l.49024-.49024c.340224-.340224.892032-.340224 1.232256 0zm4.828928-4.847232h1.581312v-2.743296h-1.581312zm0-3.517696h1.581312v-2.743168h-1.581312zm-3.32416-.000128h1.581312v-2.743168h-1.581312zm0 3.517824h1.581312v-2.743296h-1.581312zm6.551296 3.549952h-3.227136v6.841728c0 .48128-.390144.871424-.871424.871424s-.871296-.390144-.871296-.871424v-3.341312l-2.599168 2.599168c-.400384.400384-1.000832.449024-1.341056.1088-.340352-.340352-.291584-.940672.1088-1.341056l3.831424-3.831424v-1.035904h-3.32416c-.213888 0-.3872-.173312-.3872-.387328 0-.213888.173312-.387328.3872-.387328h3.32416v-2.000768h-1.58144c0 .481152-.390144.871296-.871296.871296-.48128 0-.871424-.390144-.871424-.871296v-1.613696-4.163072-.419712c0-.891008.722432-1.613568 1.613696-1.613568h5.16352c.891264 0 1.613696.72256 1.613696 1.613568v.419712 4.163072 1.613696c0 .481152-.390144.871296-.871296.871296-.48128 0-.871424-.390144-.871424-.871296h-1.581312v2.000768h3.227136c.213888 0 .387328.17344.387328.387328 0 .214016-.17344.387328-.387328.387328zm1.100416 5.359616c-.340352.340352-.89216.340352-1.232512 0l-2.484864-2.484864c-.340352-.340352-.340352-.89216 0-1.232512s.892288-.340352 1.23264 0l2.484736 2.484736c.340352.34048.340352.892288 0 1.23264zm-1.9277696-19.0374784c-1.043712 0-.9696-.703488-3.014528-.838144l-8.869632-.001024v-.000256c-.375808-.008704-.67776-.315776-.67776-.693504 0-.377856.301952-.684928.67776-.693504v-.000384l8.863872-.000768c2.048-.134016 2.016384-.8384 3.020288-.8384.8512 0 1.54112.686336 1.54112 1.533056 0 .846592-.68992 1.532928-1.54112 1.532928zm-.491776-2.340608c-.265728.123392-.251392 1.53856 0 1.648384s1.391872-.505984 1.387648-.824192c-.004352-.31808-1.12192-.947456-1.387648-.824192z" mask="url(#a)"/></g></g></svg>